<svg width="78" height="78" viewBox="0 0 78 78" fill="none" xmlns="http://www.w3.org/2000/svg">
<g clip-path="url(#clip0_941_837)">
<path d="M51.192 25.1534H31.2871C29.0909 25.1534 27.3105 26.9368 27.3105 29.1367V30.4011C27.3105 32.601 29.0909 34.3845 31.2871 34.3845H51.192C53.3881 34.3845 55.1685 32.601 55.1685 30.4011V29.1367C55.1685 26.9368 53.3881 25.1534 51.192 25.1534Z" stroke="#0A5D31" stroke-width="2" stroke-linecap="round" stroke-linejoin="round"/>
<path d="M15.9398 75.9748H3.87617C2.35706 75.9748 1.11719 74.744 1.11719 73.211V26.5296C1.11719 25.0079 2.34589 23.7659 3.87617 23.7659H15.9509C17.47 23.7659 18.7099 24.9967 18.7099 26.5296V35.8614" stroke="#0A5D31" stroke-width="2" stroke-linecap="round" stroke-linejoin="round"/>
<path d="M74.2579 69.2612C73.5318 70.6263 72.6829 71.8795 71.7335 73.0208C64.4395 81.8155 50.3876 74.2964 53.6493 63.331C54.0737 61.9099 54.6434 60.5113 55.3694 59.1462C59.1784 52.0187 66.2825 47.8003 73.7887 47.3863C77.6089 53.8761 78.0557 62.1337 74.2579 69.2612Z" stroke="#0A5D31" stroke-width="2" stroke-linecap="round" stroke-linejoin="round"/>
<path d="M53.6951 76.7244C52.2095 76.4111 50.7574 75.5943 49.551 74.1845C48.8585 73.3677 48.2329 72.4725 47.6968 71.4991C44.882 66.3968 45.1165 60.4441 47.8085 55.7223C49.3388 55.7894 50.8579 56.0691 52.31 56.5615" stroke="#0A5D31" stroke-width="2" stroke-linecap="round" stroke-linejoin="round"/>
<path d="M69.8022 54.8383L60.8215 71.6781C60.8215 71.6781 63.0779 63.275 60.6875 60.1196" stroke="#0A5D31" stroke-width="2" stroke-linecap="round" stroke-linejoin="round"/>
<path d="M66.6855 60.6791C66.6855 60.6791 68.819 57.1769 72.237 58.6203" stroke="#0A5D31" stroke-width="2" stroke-linecap="round" stroke-linejoin="round"/>
<path d="M45.3396 73.7033H33.2984C31.3659 73.7033 29.4559 73.2446 27.7469 72.3383C20.5199 68.478 15.7168 61.5966 15.7168 53.753C15.7168 46.5247 19.7938 40.1245 26.0937 36.1412C27.9479 34.9663 30.1261 34.3844 32.3154 34.3844H50.165C52.3655 34.3844 54.5325 34.9663 56.3979 36.1412C60.4079 38.6811 63.5243 42.2057 65.2557 46.3121" stroke="#0A5D31" stroke-width="2" stroke-linecap="round" stroke-linejoin="round"/>
<path d="M17.75 45.1708C17.75 45.1708 28.6072 51.4032 39.5203 47.5877C50.4334 43.7722 54.3429 44.2421 57.4705 45.1708" stroke="#0A5D31" stroke-width="2" stroke-linecap="round" stroke-linejoin="round"/>
<path d="M15.2912 13.3487C15.2912 14.6243 15.0678 15.8439 14.6434 16.974C13.2695 20.6777 7.97489 20.6777 6.60098 16.974C6.18769 15.8439 5.95312 14.6243 5.95312 13.3487C5.95312 9.71224 7.80734 6.51212 10.6222 4.64352C13.437 6.51212 15.2912 9.71224 15.2912 13.3487Z" stroke="#0A5D31" stroke-width="2" stroke-linecap="round" stroke-linejoin="round"/>
<path d="M39.843 1.11893C39.843 3.11061 35.375 3.11061 35.375 5.0911C35.375 7.07159 39.843 7.08278 39.843 9.06327C39.843 11.0438 35.375 11.0549 35.375 13.0354C35.375 15.0159 39.843 15.0271 39.843 17.0188C39.843 19.0105 35.375 19.0105 35.375 21.0022" stroke="#0A5D31" stroke-width="2" stroke-linecap="round" stroke-linejoin="round"/>
<path d="M48.7004 8.13455C48.7004 9.42131 44.2324 9.42131 44.2324 10.7081C44.2324 11.9948 48.7004 11.9948 48.7004 13.2816C48.7004 14.5683 44.2324 14.5683 44.2324 15.8551C44.2324 17.1419 48.7004 17.1419 48.7004 18.4286C48.7004 19.7154 44.2324 19.7154 44.2324 21.0021" stroke="#0A5D31" stroke-width="2" stroke-linecap="round" stroke-linejoin="round"/>
</g>
<defs>
<clipPath id="clip0_941_837">
<rect width="78" height="78" fill="white"/>
</clipPath>
</defs>
</svg>
