<svg width="78" height="85" viewBox="0 0 78 85" fill="none" xmlns="http://www.w3.org/2000/svg">
<g clip-path="url(#clip0_941_849)">
<path d="M50.8269 32.3057L67.5958 37.8643L39.8811 50.187L10.4375 37.8643L28.7655 31.3882" stroke="#0A5D31" stroke-width="2" stroke-linejoin="round"/>
<path d="M10.4375 53.5798V69.7006L39.8811 83.9331" stroke="#0A5D31" stroke-width="2" stroke-linejoin="round"/>
<path d="M46.4675 18.3614L46.9766 17.7746L76.9399 28.0808L67.5956 37.8643L75.7201 49.4402L49.5752 62.5844L39.8809 50.187" stroke="#0A5D31" stroke-width="2" stroke-linejoin="round"/>
<path d="M68.0616 53.281V69.4019L39.8802 83.9331V50.187L30.8753 63.0645L1.06055 49.4402L10.4367 37.8643L1.94088 28.4436L32.0845 18.1266" stroke="#0A5D31" stroke-width="2" stroke-linejoin="round"/>
<path d="M34.8107 23.4398V24.7094C34.8107 25.691 34.2486 26.5978 33.3577 27.0246L31.1727 28.0808C29.7196 28.7743 28.7969 30.2466 28.7969 31.8683V45.5567" stroke="#0A5D31" stroke-width="2" stroke-miterlimit="10"/>
<path d="M44.1122 23.1624H34.333C33.336 23.1624 32.4769 22.4369 32.3178 21.434L31.9996 19.503C31.7981 18.2547 32.7527 17.1131 34.0148 17.1131H44.4198C45.6819 17.1131 46.6365 18.244 46.435 19.503L46.1168 21.434C45.9577 22.4263 45.0986 23.1624 44.1016 23.1624H44.1122Z" stroke="#0A5D31" stroke-width="2" stroke-miterlimit="10"/>
<path d="M44.5254 23.4398V24.7094C44.5254 25.691 45.0875 26.5978 45.9785 27.0246L48.1634 28.0808C49.6165 28.7743 50.5393 30.2466 50.5393 31.8683V45.1833" stroke="#0A5D31" stroke-width="2" stroke-miterlimit="10"/>
<path d="M32.7207 32.007H50.1683" stroke="#0A5D31" stroke-width="2" stroke-miterlimit="10" stroke-linecap="round"/>
<path d="M42.3422 17.1131H36.498L37.3572 3.01932C37.4208 1.92042 38.333 1.06689 39.4148 1.06689C40.5073 1.06689 41.4088 1.92042 41.4725 3.01932L42.3316 17.1131H42.3422Z" stroke="#0A5D31" stroke-width="2" stroke-miterlimit="10"/>
<path d="M36.4863 41.8545C36.4863 39.3366 37.6742 37.0961 39.5198 35.6771C41.3653 37.1067 42.5532 39.3366 42.5532 41.8545C42.5532 42.4306 42.4896 42.996 42.3729 43.5402C41.6835 46.6555 37.3561 46.6555 36.6772 43.5402C36.5606 42.996 36.4969 42.4306 36.4969 41.8545H36.4863Z" stroke="#0A5D31" stroke-width="2" stroke-miterlimit="10"/>
</g>
<defs>
<clipPath id="clip0_941_849">
<rect width="78" height="85" fill="white"/>
</clipPath>
</defs>
</svg>
