<svg width="78" height="68" viewBox="0 0 78 68" fill="none" xmlns="http://www.w3.org/2000/svg">
<g clip-path="url(#clip0_941_862)">
<path d="M37.3657 16.4486C37.3657 10.2855 40.2762 4.79237 44.7958 1.29858C49.3255 4.79237 52.2258 10.2752 52.2258 16.4486C52.2258 17.8709 52.0721 19.2519 51.7749 20.5917C50.0941 28.2286 39.4871 28.2286 37.8064 20.5917C37.5092 19.2622 37.3555 17.8709 37.3555 16.4486H37.3657Z" stroke="#0A5D31" stroke-width="2" stroke-miterlimit="10"/>
<path d="M53.5996 5.66838C55.844 4.20491 58.3753 3.23613 61.0194 2.82388C63.3253 8.08002 63.2638 14.2946 60.3225 19.7054C59.6461 20.9524 58.8468 22.0964 57.9551 23.127C57.0635 24.1576 56.0695 24.8275 55.0241 25.2295" stroke="#0A5D31" stroke-width="2" stroke-linecap="round" stroke-linejoin="round"/>
<path d="M65.7129 13.8102C67.4243 14.14 69.0846 14.7172 70.6526 15.5005C69.4945 21.1173 65.8563 26.1467 60.3325 28.8263C59.0617 29.4447 57.7499 29.9085 56.4279 30.2279C54.491 30.6917 52.7487 30.4031 51.3242 29.6508" stroke="#0A5D31" stroke-width="2" stroke-linecap="round" stroke-linejoin="round"/>
<path d="M35.5825 5.66838C33.3381 4.20491 30.8068 3.23613 28.1627 2.82388C25.8569 8.08002 25.9184 14.2946 28.8596 19.7054C29.536 20.9524 30.3354 22.0964 31.227 23.127C32.1186 24.1576 33.1127 24.8275 34.158 25.2295" stroke="#0A5D31" stroke-width="2" stroke-linecap="round" stroke-linejoin="round"/>
<path d="M23.469 13.8102C21.7575 14.14 20.0973 14.7172 18.5293 15.5005C19.6874 21.1173 23.3255 26.1467 28.8494 28.8263C30.1202 29.4447 31.4319 29.9085 32.754 30.2279C34.6909 30.6917 36.4331 30.4031 37.8576 29.6508" stroke="#0A5D31" stroke-width="2" stroke-linecap="round" stroke-linejoin="round"/>
<path d="M8.68945 44.739L17.1136 37.9163C19.0198 36.3704 21.4076 35.5253 23.857 35.5253H30.6926C31.7687 35.5253 32.8243 35.8242 33.7466 36.3807L34.0336 36.5559C34.9559 37.1125 36.0115 37.4113 37.0876 37.4113H48.7911C50.974 37.4113 52.7573 39.1943 52.7573 41.3998C52.7573 43.595 50.9843 45.3883 48.7911 45.3883H35.1506" stroke="#0A5D31" stroke-width="2" stroke-miterlimit="10" stroke-linecap="round"/>
<path d="M56.0982 42.5026L71.4092 33.0415C73.1309 31.98 75.3753 32.5159 76.4309 34.2473C77.4864 35.9788 76.9535 38.2358 75.2318 39.2974L50.0414 54.8597L45.4809 57.5393C44.5791 58.0649 43.5542 58.3534 42.5089 58.3534H35.6118C34.6177 58.3534 33.6339 58.0958 32.7628 57.6114C31.8916 57.127 30.9078 56.8694 29.9137 56.8694H23.9082" stroke="#0A5D31" stroke-width="2" stroke-miterlimit="10" stroke-linecap="round"/>
<path d="M7.43208 43.4974C6.11626 41.9628 3.81251 41.7914 2.28651 43.1147C0.760507 44.4379 0.590118 46.7547 1.90593 48.2893L16.8367 65.7027C18.1525 67.2374 20.4563 67.4087 21.9823 66.0855C23.5083 64.7622 23.6786 62.4455 22.3628 60.9109L7.43208 43.4974Z" stroke="#0A5D31" stroke-width="2" stroke-miterlimit="10" stroke-linecap="round"/>
</g>
<defs>
<clipPath id="clip0_941_862">
<rect width="78" height="68" fill="white"/>
</clipPath>
</defs>
</svg>
