<svg width="96" height="74" viewBox="0 0 96 74" fill="none" xmlns="http://www.w3.org/2000/svg">
<g clip-path="url(#clip0_941_875)">
<path d="M47.8242 38.5548H51.4128C51.9859 38.5548 52.559 38.6257 53.1144 38.7585L55.7772 39.3875C57.3907 39.7685 58.8543 40.6189 59.9829 41.8415L68.8264 51.3384C70.1842 52.8002 70.1137 55.0858 68.6589 56.459C67.2041 57.8233 64.9293 57.7524 63.5626 56.2907L56.0682 48.2466V59.1787" stroke="#0A5D31" stroke-width="2" stroke-linecap="round" stroke-linejoin="round"/>
<path d="M47.7622 38.5548H44.1736C43.6005 38.5548 43.0274 38.6257 42.472 38.7585L39.8092 39.3875C38.1957 39.7685 36.7321 40.6189 35.6035 41.8415L26.76 51.3384C25.4021 52.8002 25.4727 55.0858 26.9275 56.459C28.3823 57.8233 30.6571 57.7524 32.0238 56.2907L39.5182 48.2466V59.1787V62.997L35.7798 62.5806C32.6586 62.2263 29.9253 64.6891 29.9253 67.8429C29.9253 70.7664 32.2883 73.1407 35.1979 73.1407H39.7563" stroke="#0A5D31" stroke-width="2" stroke-linecap="round" stroke-linejoin="round"/>
<path d="M62.9716 73.1141H46.4837C44.394 73.1141 42.7012 71.4131 42.7012 69.3135C42.7012 67.3645 44.1648 65.7345 46.0869 65.5307L62.4778 63.7855C65.2287 63.4931 67.627 65.6547 67.627 68.4365C67.627 71.0233 65.5461 73.1141 62.9716 73.1141Z" stroke="#0A5D31" stroke-width="2" stroke-linecap="round" stroke-linejoin="round"/>
<path d="M53.714 27.2417C53.714 24.0712 51.156 21.501 48.0006 21.501C44.8451 21.501 42.2871 24.0712 42.2871 27.2417V29.6868C42.2871 32.8573 44.8451 35.4275 48.0006 35.4275C51.156 35.4275 53.714 32.8573 53.714 29.6868V27.2417Z" stroke="#0A5D31" stroke-width="2" stroke-linecap="round" stroke-linejoin="round"/>
<path d="M47.9988 0.885895C47.9988 0.885895 32.8158 15.8578 32.084 36.8361" stroke="#0A5D31" stroke-width="2" stroke-linecap="round" stroke-linejoin="round"/>
<path d="M24.7831 42.8071C24.7831 42.8071 17.2886 29.5008 20.0572 9.78928C20.0572 9.78928 28.7155 12.385 36.2365 18.861" stroke="#0A5D31" stroke-width="2" stroke-linecap="round" stroke-linejoin="round"/>
<path d="M21.7155 55.83C21.7155 55.83 4.6281 44.0297 0.880859 31.9459C0.880859 31.9459 10.8618 29.0135 20.4988 31.308" stroke="#0A5D31" stroke-width="2" stroke-linecap="round" stroke-linejoin="round"/>
<path d="M48 0.885895C48 0.885895 63.183 15.8578 63.9148 36.8361" stroke="#0A5D31" stroke-width="2" stroke-linecap="round" stroke-linejoin="round"/>
<path d="M71.2151 42.8071C71.2151 42.8071 78.7095 29.5008 75.941 9.78928C75.941 9.78928 67.2827 12.385 59.7617 18.861" stroke="#0A5D31" stroke-width="2" stroke-linecap="round" stroke-linejoin="round"/>
<path d="M74.2832 55.83C74.2832 55.83 91.3706 44.0208 95.1179 31.9459C95.1179 31.9459 85.137 29.0135 75.5 31.308" stroke="#0A5D31" stroke-width="2" stroke-linecap="round" stroke-linejoin="round"/>
</g>
<defs>
<clipPath id="clip0_941_875">
<rect width="96" height="74" fill="white"/>
</clipPath>
</defs>
</svg>
