<svg width="48" height="36" viewBox="0 0 48 36" fill="none" xmlns="http://www.w3.org/2000/svg">
<g clip-path="url(#clip0_818_400)">
<path d="M45.6675 2.54121L27.9285 19.565L27.2255 20.2571C27.1134 20.3708 26.9912 20.4741 26.8689 20.567C26.6244 20.753 26.3798 20.9079 26.1149 21.0525H26.1047C25.8398 21.1868 25.5749 21.2901 25.2998 21.3728C23.7511 21.8273 22.019 21.4554 20.7759 20.2571L20.0627 19.5754L2.33398 2.55154C3.35288 1.44623 4.7997 0.77478 6.38917 0.77478H41.6021C43.2017 0.77478 44.6384 1.44623 45.6675 2.54121Z" stroke="#00AA4B" stroke-width="1.5" stroke-linejoin="round"/>
<path d="M46.1043 32.9423C45.0854 34.3265 43.4551 35.2252 41.6109 35.2252H6.39803C4.55384 35.2252 2.91342 34.3265 1.89453 32.932L20.0614 19.5753L20.7746 20.2571C22.0176 21.4554 23.7498 21.8273 25.2985 21.3727C25.5736 21.3004 25.8487 21.1868 26.1034 21.0525H26.1136C26.3785 20.9182 26.6332 20.7529 26.8676 20.567C26.9898 20.474 27.1121 20.3707 27.2242 20.2571L27.9374 19.5753L46.1043 32.9423Z" stroke="#00AA4B" stroke-width="1.5" stroke-linejoin="round"/>
<path d="M2.33277 2.54114L20.0615 19.5753L1.89464 32.932C1.18142 31.9816 0.763672 30.7937 0.763672 29.5127V6.47686C0.763672 4.94802 1.35463 3.57414 2.33277 2.55147V2.54114Z" stroke="#00AA4B" stroke-width="1.5" stroke-linejoin="round"/>
<path d="M47.2353 6.47686V29.5231C47.2353 30.8143 46.8176 32.0023 46.1043 32.9423L27.9375 19.5753L45.6662 2.54114H45.6764C46.6444 3.56381 47.2353 4.94802 47.2353 6.47686Z" stroke="#00AA4B" stroke-width="1.5" stroke-linejoin="round"/>
</g>
<defs>
<clipPath id="clip0_818_400">
<rect width="48" height="36" fill="white"/>
</clipPath>
</defs>
</svg>
