<svg width="85" height="157" viewBox="0 0 85 157" fill="none" xmlns="http://www.w3.org/2000/svg">
<g clip-path="url(#clip0_935_254)">
<path d="M28.164 26.4306C29.1397 32.0503 28.8901 37.0303 28.8674 42.6728C27.7481 41.1727 27.0901 39.4441 25.9481 38.005C24.617 36.3221 23.059 34.8372 21.7582 33.1087C19.1868 29.6897 17.0541 25.9204 15.5642 21.8998C12.9852 14.9324 12.4028 7.13493 14.4902 0.00756836C20.1776 8.20099 25.9935 16.6762 28.164 26.4382V26.4306Z" fill="#00AA4B"/>
<path d="M38.2525 48.422C38.1844 48.6123 38.1088 48.8027 38.0407 48.9931C36.3315 53.5086 34.3651 58.1231 34.5996 62.9432C33.3441 59.4938 31.9071 56.5697 31.4987 52.907C31.0752 49.1149 30.9845 45.2695 31.6197 41.4926C32.1794 38.1345 33.2004 34.8526 34.6525 31.7838C35.2046 30.6112 39.9239 24.6336 39.7499 23.9178C41.7844 32.1874 41.1718 40.4189 38.26 48.4144L38.2525 48.422Z" fill="#00AA4B"/>
<path d="M22.4991 44.6983C17.4016 40.2056 10.8975 37.1064 7.19922 31.3954C9.80087 40.8529 15.7756 49.7544 24.6091 53.9197C29.578 56.265 33.1931 58.8159 35.704 63.9787C33.0796 56.8057 28.2318 49.7468 22.4991 44.6983Z" fill="#00AA4B"/>
<path d="M14.6562 52.5339C14.8831 54.8335 16.373 57.5748 17.2503 59.7069C18.294 62.2426 18.8159 65.0524 20.4495 67.3064C22.2948 69.8497 25.2671 71.2432 28.0049 72.7585C35.8098 77.0761 44.0156 82.5815 47.366 91.4298C40.6955 75.4084 28.8065 62.3111 14.6638 52.5262L14.6562 52.5339Z" fill="#00AA4B"/>
<path d="M50.8533 54.4528C54.0902 60.9482 55.0129 68.5248 53.6894 75.6521C53.1449 78.599 52.3659 81.5155 51.776 84.4471C51.4356 86.1452 50.6491 87.7671 50.0289 89.3738C49.6508 90.3485 47.881 93.3259 48.1231 94.2929C45.9903 87.4245 45.3248 80.2362 45.9222 73.0784C46.1869 69.9259 46.913 66.8724 47.7903 63.8189C48.2214 62.3188 51.4508 55.6407 50.8608 54.4452L50.8533 54.4528Z" fill="#00AA4B"/>
<path d="M-0.00024955 58.3514C1.20982 62.9431 1.42159 67.7937 3.10812 72.2254C4.56777 76.0632 7.1543 79.4289 10.4064 81.8961C12.0475 83.1449 13.3937 83.5333 15.2693 84.0968C17.6744 84.8125 19.7012 86.2289 21.8794 87.4092C15.9425 76.8704 6.55683 68.4942 -0.0078125 58.3514H-0.00024955Z" fill="#00AA4B"/>
<path d="M27.0154 39.1776C28.9666 47.0893 30.933 55.0619 34.3137 62.5015C36.0531 66.324 38.1481 69.9639 39.9632 73.7408C41.7027 77.3654 43.1774 81.1194 44.4783 84.9268C47.148 92.7242 49.6513 100.735 50.1429 109.012C50.6194 117.084 49.8101 125.163 50.09 133.242C50.3698 141.413 51.7538 149.758 56.2765 156.711C56.7681 157.464 57.8949 156.642 57.4033 155.888C48.7891 142.639 52.132 125.856 51.6252 110.992C51.4816 106.85 51.0429 102.715 50.037 98.6789C49.0538 94.7269 47.8589 90.8053 46.611 86.9294C45.3783 83.0992 44.0018 79.3147 42.3758 75.6368C40.7195 71.9056 38.7304 68.3496 36.9077 64.6945C32.8011 56.4554 30.5095 47.5766 28.3162 38.6674C28.1045 37.7994 26.8036 38.3019 27.0154 39.17V39.1776Z" fill="#00AA4B"/>
<path d="M51.7993 114.304C53.8715 110.962 56.5337 108.045 58.916 104.931C60.1563 103.316 61.3286 101.641 62.3496 99.8821C63.4689 97.9556 64.3689 95.892 65.2159 93.8284C68.6873 85.3609 70.2982 76.3298 71.7881 67.3445C72.6201 62.3188 73.4444 57.2931 74.6091 52.3359C74.8133 51.4602 73.4444 51.2242 73.2402 52.0998C71.1755 60.8872 70.1923 69.8878 68.3016 78.7132C66.4487 87.3407 63.7412 96.1357 58.432 103.278C55.8227 106.781 52.8429 110.01 50.5362 113.733C50.0673 114.495 51.3304 115.073 51.7993 114.32V114.304Z" fill="#00AA4B"/>
<path d="M51.2172 126.792C50.4836 122.932 49.7349 119.01 48.1996 115.378C46.6341 111.654 44.1005 108.654 41.4988 105.631C38.9199 102.639 36.3107 99.6537 33.4065 96.9809C30.3813 94.1939 26.8872 92.039 23.7864 89.3586C20.5646 86.5792 17.8646 83.1907 15.8529 79.429C15.4369 78.6447 14.1285 79.1397 14.552 79.9316C16.284 83.1831 18.4621 86.1528 21.0713 88.7494C23.915 91.5821 27.3183 93.6914 30.404 96.2195C33.4746 98.7399 36.1897 101.656 38.8064 104.641C41.4081 107.619 44.2593 110.588 46.0971 114.129C48.1542 118.104 49.0089 122.566 49.8408 126.922C50.0072 127.798 51.3912 127.668 51.2248 126.785L51.2172 126.792Z" fill="#00AA4B"/>
<path d="M12.1914 92.808C13.7342 94.5746 15.2847 96.3336 16.8275 98.1002C18.7334 100.278 20.798 102.547 23.5736 103.339C24.761 103.674 26.0165 103.712 27.2492 103.705C29.1475 103.682 31.1063 103.126 32.9441 103.126C35.0542 103.126 37.4517 104.184 39.4937 104.725C37.497 104.2 35.6819 100.118 34.0483 98.8312C32.6114 97.6966 30.7358 97.354 29.0417 96.7067C23.5812 94.6127 18.0527 93.1583 12.199 92.8232L12.1914 92.808Z" fill="#00AA4B"/>
<path d="M40.1824 93.0441C41.6799 95.5569 43.5025 98.4734 43.9941 101.382C44.4177 103.903 43.3664 107.885 44.3874 110.185C42.1866 105.22 39.4639 100.499 36.2648 96.1204C34.4875 93.6913 32.506 91.247 31.485 88.3687C30.9859 86.9752 30.8649 85.6045 30.7514 84.1425C30.706 83.5562 30.948 80.7844 30.6758 80.4874C34.2909 84.3024 37.49 88.5209 40.19 93.0441H40.1824Z" fill="#00AA4B"/>
<path d="M76.7723 30.4208C76.1521 31.2355 77.5513 37.6014 77.5588 38.9645C77.5739 41.9799 77.3017 44.9953 76.7723 47.9574C75.7437 53.638 73.4143 58.8236 72.4538 64.5347C71.8412 55.8844 67.8934 48.1021 71.2362 39.3604C72.4916 36.0709 74.6471 33.223 76.7723 30.4284V30.4208Z" fill="#00AA4B"/>
<path d="M59.1807 66.8572C59.7328 69.9335 60.7916 73.7866 62.9698 76.1319C65.1857 78.5229 66.9025 79.9773 68.2714 83.1907C68.7706 71.1975 64.7093 59.5471 60.7009 48.2468C61.1093 49.3966 60.0959 50.7977 59.7782 51.7953C59.3093 53.2725 59.1051 54.8107 58.9387 56.3717C58.5757 59.8593 58.553 63.4001 59.1807 66.8648V66.8572Z" fill="#00AA4B"/>
<path d="M84.9991 67.3445C83.4562 73.0707 80.726 78.462 77.0882 83.1374C75.2504 85.4979 73.1706 87.5311 70.9925 89.5566C70.0623 90.4247 69.4648 91.4374 68.4211 92.1989C67.7253 92.7015 67.0068 93.1583 66.2732 93.6076C65.948 93.8056 64.3447 94.4528 64.2539 94.765C66.8707 86.13 71.5597 78.9569 77.9655 72.6367C80.068 70.5579 82.2537 68.4258 84.9991 67.3521V67.3445Z" fill="#00AA4B"/>
</g>
<defs>
<clipPath id="clip0_935_254">
<rect width="85" height="157" fill="white"/>
</clipPath>
</defs>
</svg>
