<svg width="809" height="814" viewBox="0 0 809 814" fill="none" xmlns="http://www.w3.org/2000/svg">
<g clip-path="url(#clip0_1238_210)">
<path d="M329.982 40.3096C407.572 59.2748 490.337 85.1325 559.303 117.883C542.063 197.179 533.44 279.921 536.887 362.669C538.616 416.107 545.515 471.269 557.574 524.708L373.086 340.258C355.851 281.65 333.435 209.246 329.982 116.16C328.264 92.0305 329.982 66.1673 329.982 40.3096Z" stroke="#00AA4B" stroke-miterlimit="10"/>
<path d="M281.709 28.2534V117.888L279.98 116.165C281.709 174.773 292.05 224.765 302.396 269.588L35.1426 2.38455C79.9749 -4.50231 174.81 5.83632 281.704 28.2478L281.709 28.2534Z" stroke="#00AA4B" stroke-miterlimit="10"/>
<path d="M2.39092 38.5864L269.634 305.779C224.812 293.711 174.81 285.096 116.19 283.367L117.908 285.096C88.6031 283.367 57.5585 285.096 28.254 285.096C5.83785 179.937 -4.5085 83.4038 2.39092 38.5864Z" stroke="#00AA4B" stroke-miterlimit="10"/>
<path d="M116.189 562.632C83.4319 493.68 57.5577 412.661 38.5996 333.359H114.465C207.571 336.811 279.985 359.223 338.61 376.454L523.099 560.904C469.644 548.831 416.194 541.944 361.015 540.221C279.979 536.775 197.225 545.39 116.189 562.632Z" stroke="#00AA4B" stroke-miterlimit="10"/>
<path d="M204.125 700.542C179.985 676.402 159.293 643.652 138.605 607.455C211.019 591.931 285.161 585.044 359.298 588.49V590.213C438.611 591.931 516.2 605.727 590.337 628.138L693.789 731.569C624.823 783.279 405.848 902.223 204.125 700.542Z" stroke="#00AA4B" stroke-miterlimit="10"/>
<path d="M726.546 695.373L623.094 591.942C600.678 516.092 588.608 438.519 585.161 360.946C581.714 286.825 588.608 212.703 604.125 140.294C642.057 159.254 673.096 181.665 697.231 205.8H695.513C897.236 405.763 778.267 626.409 726.546 695.367V695.373Z" stroke="#00AA4B" stroke-miterlimit="10"/>
</g>
<defs>
<clipPath id="clip0_1238_210">
<rect width="809" height="814" fill="white"/>
</clipPath>
</defs>
</svg>
