<svg width="561" height="564" viewBox="0 0 561 564" fill="none" xmlns="http://www.w3.org/2000/svg">
<g clip-path="url(#clip0_1238_202)">
<path d="M331.899 536.071C278.14 522.93 220.794 505.014 173.009 482.322C184.954 427.38 190.928 370.05 188.54 312.716C187.342 275.69 182.562 237.47 174.207 200.444L302.034 328.244C313.975 368.852 329.507 419.019 331.899 483.516C333.09 500.235 331.899 518.155 331.899 536.071Z" stroke="#00AA4B" stroke-miterlimit="10"/>
<path d="M365.346 544.424L365.346 482.318L366.544 483.512C365.346 442.904 358.181 408.266 351.013 377.209L536.186 562.348C505.123 567.12 439.414 559.956 365.35 544.428L365.346 544.424Z" stroke="#00AA4B" stroke-miterlimit="10"/>
<path d="M558.88 537.265L373.714 352.134C404.77 360.495 439.415 366.464 480.032 367.662L478.841 366.464C499.146 367.662 520.656 366.464 540.96 366.464C556.492 439.327 563.66 506.212 558.88 537.265Z" stroke="#00AA4B" stroke-miterlimit="10"/>
<path d="M480.032 174.166C502.728 221.941 520.656 278.077 533.792 333.023L481.226 333.024C416.715 330.632 366.542 315.104 325.922 303.165L198.094 175.364C235.132 183.729 272.166 188.501 310.398 189.694C366.546 192.082 423.884 186.113 480.032 174.166Z" stroke="#00AA4B" stroke-miterlimit="10"/>
<path d="M419.102 78.6124C435.828 95.3385 450.165 118.03 464.499 143.11C414.325 153.866 362.954 158.638 311.586 156.25L311.586 155.056C256.633 153.866 202.873 144.307 151.505 128.779L79.8258 57.1146C127.611 21.2862 279.333 -61.1273 419.102 78.6124Z" stroke="#00AA4B" stroke-miterlimit="10"/>
<path d="M57.1309 82.194L128.81 153.859C144.342 206.413 152.705 260.161 155.093 313.91C157.481 365.267 152.705 416.623 141.954 466.794C115.671 453.657 94.1648 438.129 77.4429 421.407L78.6332 421.407C-61.1357 282.857 21.295 129.977 57.1309 82.1979L57.1309 82.194Z" stroke="#00AA4B" stroke-miterlimit="10"/>
</g>
<defs>
<clipPath id="clip0_1238_202">
<rect width="560.536" height="564" fill="white" transform="translate(560.536 564) rotate(180)"/>
</clipPath>
</defs>
</svg>
