<svg width="92" height="84" viewBox="0 0 92 84" fill="none" xmlns="http://www.w3.org/2000/svg">
<g clip-path="url(#clip0_935_351)">
<path d="M82.4186 59.2106C75.9613 73.0184 61.982 82.5939 45.7895 82.5939C26.0112 82.5939 9.55261 68.3502 6.05078 49.5226" stroke="#018973" stroke-width="2" stroke-linecap="round" stroke-linejoin="round"/>
<path d="M9.86133 23.3271C16.5988 10.3066 30.1579 1.40607 45.7761 1.40607C65.4283 1.40607 81.8029 15.4811 85.4588 34.1399" stroke="#018973" stroke-width="2" stroke-linecap="round" stroke-linejoin="round"/>
<path d="M52.6958 16.0013H39.5709C38.0701 16.0013 36.8535 17.2226 36.8535 18.7292V19.6572C36.8535 21.1637 38.0701 22.385 39.5709 22.385H52.6958C54.1966 22.385 55.4132 21.1637 55.4132 19.6572V18.7292C55.4132 17.2226 54.1966 16.0013 52.6958 16.0013Z" stroke="#018973" stroke-width="2" stroke-linecap="round" stroke-linejoin="round"/>
<path d="M40.7338 22.9053V33.0994C40.7338 36.0101 39.6412 38.8082 37.6522 40.9314L30.6765 48.4399C28.8276 50.4366 27.791 53.0519 27.791 55.7797C27.791 60.1105 30.3824 64.0194 34.3464 65.6927L35.8172 66.3114C36.5596 66.6207 37.344 66.7894 38.1564 66.7894H45.8184" stroke="#018973" stroke-width="2" stroke-linecap="round" stroke-linejoin="round"/>
<path d="M51.5202 22.9053V33.0994C51.5202 36.0101 52.6128 38.8082 54.6018 40.9314L61.5774 48.4399C63.4264 50.4366 64.463 53.0519 64.463 55.7797C64.463 60.1105 61.8716 64.0194 57.9075 65.6927L56.4368 66.3114C55.6944 66.6207 54.91 66.7894 54.0975 66.7894H46.4355" stroke="#018973" stroke-width="2" stroke-linecap="round" stroke-linejoin="round"/>
<path d="M33.0293 45.923H58.8588" stroke="#018973" stroke-width="2" stroke-linecap="round" stroke-linejoin="round"/>
<path d="M40.9859 56.7359C42.1463 56.7359 43.087 55.7916 43.087 54.6267C43.087 53.4619 42.1463 52.5176 40.9859 52.5176C39.8255 52.5176 38.8848 53.4619 38.8848 54.6267C38.8848 55.7916 39.8255 56.7359 40.9859 56.7359Z" stroke="#018973" stroke-width="2" stroke-linecap="round" stroke-linejoin="round"/>
<path d="M50.0353 63.0774C51.9306 63.0774 53.4671 61.535 53.4671 59.6324C53.4671 57.7298 51.9306 56.1875 50.0353 56.1875C48.14 56.1875 46.6035 57.7298 46.6035 59.6324C46.6035 61.535 48.14 63.0774 50.0353 63.0774Z" stroke="#018973" stroke-width="2" stroke-linecap="round" stroke-linejoin="round"/>
<path d="M53.4811 53.6003C54.4868 53.6003 55.3021 52.7819 55.3021 51.7724C55.3021 50.7628 54.4868 49.9445 53.4811 49.9445C52.4754 49.9445 51.6602 50.7628 51.6602 51.7724C51.6602 52.7819 52.4754 53.6003 53.4811 53.6003Z" stroke="#018973" stroke-width="2" stroke-linecap="round" stroke-linejoin="round"/>
<path d="M7.31266 37.5146C7.31266 37.5146 8.27917 42.0844 11.1507 44.6997C14.0222 47.3151 19.1909 55.2032 10.4503 61.7556C10.4503 61.7556 -7.61913 51.449 7.31266 37.5146Z" stroke="#018973" stroke-width="2" stroke-linecap="round" stroke-linejoin="round"/>
<path d="M84.6887 47.1463C84.6887 47.1463 83.7222 42.5765 80.8507 39.9612C77.9792 37.3458 72.8105 29.4577 81.551 22.9053C81.551 22.9053 99.6205 33.2119 84.6887 47.1463Z" stroke="#018973" stroke-width="2" stroke-linecap="round" stroke-linejoin="round"/>
</g>
<defs>
<clipPath id="clip0_935_351">
<rect width="92" height="84" fill="white"/>
</clipPath>
</defs>
</svg>
