<svg width="92" height="77" viewBox="0 0 92 77" fill="none" xmlns="http://www.w3.org/2000/svg">
<g clip-path="url(#clip0_935_343)">
<path d="M43.2328 8.81588C47.2385 7.19762 51.6052 6.30396 56.1883 6.30396C75.3029 6.30396 90.7966 21.8585 90.7966 41.0482C90.7966 60.2378 75.3029 75.7923 56.1883 75.7923C37.0738 75.7923 21.5801 60.2378 21.5801 41.0482C21.5801 33.2829 24.1183 26.1216 28.4007 20.3369" stroke="#FFAD01" stroke-width="2" stroke-linecap="round" stroke-linejoin="round"/>
<path d="M53.0859 75.6595C53.0859 75.6595 53.4228 70.539 54.0242 69.5367C54.6257 68.5343 56.6225 63.909 57.2 62.7738C57.7774 61.6386 53.9641 57.0616 53.3867 55.069C52.8093 53.0764 54.5415 48.3907 56.1173 46.9173C57.6932 45.444 56.2857 42.8113 57.0315 41.7003C57.7774 40.5892 62.9981 37.7875 65.6806 41.1206C68.3631 44.4537 69.3255 46.6637 69.3255 46.6637C69.3255 46.6637 75.1236 47.3038 76.6754 48.439C78.2272 49.5742 76.122 58.8369 76.122 58.8369L70.3239 64.4042L60.905 71.8675L59.5818 75.8044" stroke="#FFAD01" stroke-width="2" stroke-linecap="round" stroke-linejoin="round"/>
<path d="M80.6328 16.4603C80.6328 16.4603 81.2463 27.6553 80.9456 28.6818C80.6448 29.7083 81.9079 37.0267 81.9079 37.0267C81.9079 37.0267 83.9529 40.7462 85.4926 41.6037C87.0324 42.4611 90.7855 42.5698 90.7855 42.5698" stroke="#FFAD01" stroke-width="2" stroke-linecap="round" stroke-linejoin="round"/>
<path d="M50.3307 6.79907L51.1487 9.79405C51.1487 9.79405 60.7 15.8927 61.6984 16.7864C62.6968 17.68 62.1074 21.1702 60.2308 22.7159C58.3543 24.2617 55.6717 25.7955 55.2868 27.619C54.9019 29.4426 52.9651 32.4134 51.8103 32.9448C50.6555 33.4761 44.6288 32.5583 44.1356 33.9713C43.6424 35.3842 50.8239 40.4322 52.087 41.7848C53.3501 43.1374 52.496 45.5285 49.2962 44.5624C46.0964 43.5963 40.9238 41.35 40.9238 41.35" stroke="#FFAD01" stroke-width="2" stroke-linecap="round" stroke-linejoin="round"/>
<path d="M13.5802 41.4587C13.5802 41.4587 8.53997 25.566 18.0672 17.2453C27.5944 8.92455 34.2706 5.90541 35.1848 1.20764C35.1848 1.20764 51.9416 33.9592 22.6984 48.7771" stroke="#FFAD01" stroke-width="2" stroke-linecap="round" stroke-linejoin="round"/>
<path d="M10.8867 50.9268C10.8867 50.9268 19.7042 58.1365 26.8376 59.4769" stroke="#FFAD01" stroke-width="2" stroke-linecap="round" stroke-linejoin="round"/>
<path d="M14.2057 59.477C14.2057 59.477 0.396122 57.907 1.23817 41.0482C1.23817 41.0482 19.6911 42.4611 20.6655 57.2428" stroke="#FFAD01" stroke-width="2" stroke-linecap="round" stroke-linejoin="round"/>
</g>
<defs>
<clipPath id="clip0_935_343">
<rect width="92" height="77" fill="white"/>
</clipPath>
</defs>
</svg>
