<svg width="95" height="83" viewBox="0 0 95 83" fill="none" xmlns="http://www.w3.org/2000/svg">
<g clip-path="url(#clip0_935_364)">
<path d="M83.4051 58.0128C83.4051 71.065 72.8314 81.6376 59.7778 81.6376C46.7241 81.6376 36.1504 71.065 36.1504 58.0128" stroke="#A984BA" stroke-width="2" stroke-miterlimit="10"/>
<path d="M38.7652 40.6826C36.8439 47.0043 35.7538 53.4759 36.2307 59.5524" stroke="#A984BA" stroke-width="2" stroke-miterlimit="10" stroke-linecap="round"/>
<path d="M59.9673 1.36246C59.9673 1.36246 54.3125 8.48803 48.5215 18.72" stroke="#A984BA" stroke-width="2" stroke-miterlimit="10" stroke-linecap="round"/>
<path d="M79.2344 36.0502C82.0958 43.8025 83.9217 51.9772 83.3358 59.5524" stroke="#A984BA" stroke-width="2" stroke-miterlimit="10" stroke-linecap="round"/>
<path d="M59.5996 1.36246C59.5996 1.36246 65.6223 8.96489 71.6177 19.7282" stroke="#A984BA" stroke-width="2" stroke-miterlimit="10" stroke-linecap="round"/>
<path d="M30.1816 20.4366C30.1816 20.4366 41.314 23.3523 49.8984 31.4724C55.9892 37.2356 59.3139 45.3421 59.3139 53.7211V81.6239" stroke="#A984BA" stroke-width="2" stroke-linecap="round" stroke-linejoin="round"/>
<path d="M79.6576 24.2515C79.6576 24.2515 60.1316 28.366 59.2051 51.0371" stroke="#A984BA" stroke-width="2" stroke-linecap="round" stroke-linejoin="round"/>
<path d="M48.5215 18.72C54.5169 25.8047 57.0513 33.6523 57.0513 33.6523" stroke="#A984BA" stroke-width="2" stroke-linecap="round" stroke-linejoin="round"/>
<path d="M50.5393 38.0122C50.5393 38.0122 34.8558 46.6092 22.0747 32.9166C9.29357 19.2104 1.36328 16.3902 1.36328 16.3902C1.36328 16.3902 18.4502 3.54236 34.6106 8.89676C40.497 10.8451 45.0753 14.6599 48.5226 18.7336" stroke="#A984BA" stroke-width="2" stroke-linecap="round" stroke-linejoin="round"/>
<path d="M63.3066 29.4151C63.3066 29.4151 72.2998 9.57798 93.638 19.0878C93.638 19.0878 85.0264 28.3797 82.7508 32.1945C79.4806 37.6852 73.8667 38.6389 67.2718 36.2819" stroke="#A984BA" stroke-width="2" stroke-linecap="round" stroke-linejoin="round"/>
</g>
<defs>
<clipPath id="clip0_935_364">
<rect width="95" height="83" fill="white"/>
</clipPath>
</defs>
</svg>
