<svg width="54" height="46" viewBox="0 0 54 46" fill="none" xmlns="http://www.w3.org/2000/svg">
<g clip-path="url(#clip0_815_361)">
<path d="M53.0854 15.7061C53.5528 17.2735 52.8257 19.0082 51.3196 19.6352C50.6341 19.9173 49.8863 20.0741 49.0969 20.0741C46.521 20.0741 44.3398 18.3812 43.5712 16.0405C42.813 18.3812 40.6318 20.0741 38.0455 20.0741C35.4593 20.0741 33.2885 18.3812 32.5199 16.0405C31.7616 18.3812 29.5805 20.0741 26.9942 20.0741C24.4079 20.0741 22.2371 18.3812 21.4685 16.0405C20.7103 18.3812 18.5291 20.0741 15.9428 20.0741C13.3566 20.0741 11.1858 18.3812 10.4172 16.0405C9.65893 18.3812 7.47775 20.0741 4.89148 20.0741C4.19558 20.0741 3.52045 19.9487 2.90764 19.7188C1.28732 19.1231 0.414849 17.3467 0.913407 15.6852L4.82916 2.57067C5.15114 1.50479 6.1171 0.783752 7.21808 0.783752H46.7599C47.8609 0.783752 48.8372 1.51524 49.1488 2.57067L53.0646 15.7061H53.0854Z" stroke="#00AA4B" stroke-width="1.5" stroke-linejoin="round"/>
<path d="M10.4277 16.0509L14.0319 0.783752" stroke="#00AA4B" stroke-width="1.5" stroke-linejoin="round"/>
<path d="M21.4688 16.0509L22.8606 0.783752" stroke="#00AA4B" stroke-width="1.5" stroke-linejoin="round"/>
<path d="M43.5618 16.0509L39.9473 0.783752" stroke="#00AA4B" stroke-width="1.5" stroke-linejoin="round"/>
<path d="M32.5103 16.0509L31.1289 0.783752" stroke="#00AA4B" stroke-width="1.5" stroke-linejoin="round"/>
<path d="M4.08203 20.0845V43.3876C4.08203 44.3908 4.89219 45.2163 5.89969 45.2163H48.1005C49.0976 45.2163 49.9182 44.4012 49.9182 43.3876V20.0845" stroke="#00AA4B" stroke-width="1.5" stroke-linejoin="round"/>
<path d="M25.5926 24.9645H10.584V34.0454H25.5926V24.9645Z" stroke="#00AA4B" stroke-width="1.5" stroke-linejoin="round"/>
<path d="M43.4159 24.9645H33.9121V41.6111H43.4159V24.9645Z" stroke="#00AA4B" stroke-width="1.5" stroke-linejoin="round"/>
</g>
<defs>
<clipPath id="clip0_815_361">
<rect width="54" height="46" fill="white"/>
</clipPath>
</defs>
</svg>
