<svg width="121" height="33" viewBox="0 0 121 33" fill="none" xmlns="http://www.w3.org/2000/svg">
<g clip-path="url(#clip0_991_581)">
<path d="M32.1121 30.2426C32.1121 30.609 32.0549 30.9733 31.9151 31.3121C31.7753 31.6489 31.5783 31.9305 31.3516 32.1847C31.0973 32.4092 30.8177 32.6061 30.5084 32.748C30.1991 32.8878 29.8325 32.9725 29.466 32.9725C29.0995 32.9725 28.7054 32.8878 28.3686 32.748C28.0317 32.6082 27.7203 32.4113 27.4682 32.1847C27.214 31.9602 27.0169 31.651 26.8496 31.3121C26.7097 30.9754 26.625 30.609 26.625 30.2426V22.0551C26.625 20.31 26.9619 18.6793 27.6377 17.1311C28.3135 15.583 29.2139 14.2615 30.3664 13.1073C31.521 11.9531 32.843 11.053 34.3917 10.3795C35.9404 9.70392 37.5442 9.36719 39.2878 9.36719H39.345C40.2454 9.36719 40.9488 9.62133 41.4551 10.1275C41.9614 10.6336 42.2157 11.3092 42.2157 12.0971C42.2157 12.8849 42.1309 12.8574 41.9911 13.1941C41.8513 13.5308 41.6246 13.8125 41.3725 14.0666C41.1182 14.3208 40.8089 14.5177 40.4721 14.6575C40.1352 14.7973 39.7687 14.882 39.3746 14.882H39.3174C38.3598 14.882 37.4319 15.079 36.559 15.4454C35.6862 15.8117 34.9277 16.3179 34.2794 16.9638C33.6312 17.6098 33.1248 18.3425 32.7308 19.2151C32.3367 20.0876 32.1397 20.9877 32.1397 21.9725V30.2151L32.1121 30.2426Z" fill="#0A5D31"/>
<path d="M43.0002 20.9306C43.0002 19.2702 43.3095 17.6945 43.9578 16.2332C44.604 14.7698 45.4768 13.5034 46.5743 12.4063C47.6717 11.3093 48.9386 10.4367 50.4025 9.81834C51.8665 9.19994 53.413 8.86108 55.074 8.86108C56.735 8.86108 58.3112 9.17029 59.773 9.81834C61.237 10.4367 62.5314 11.3093 63.6013 12.4063C64.6987 13.5034 65.5441 14.7698 66.1606 16.2332C66.7792 17.6967 67.0906 19.2723 67.0906 20.9306V29.9038C67.0906 30.2977 67.0059 30.6641 66.8661 31.0009C66.7241 31.3376 66.5292 31.6193 66.275 31.8734C66.0229 32.1275 65.7135 32.3245 65.3746 32.4918C65.0377 32.6612 64.6712 32.7163 64.2771 32.7163C63.631 32.7163 63.0674 32.5193 62.6162 32.1254C62.1649 31.7315 61.8556 31.2529 61.7158 30.662C60.7582 31.3927 59.718 31.956 58.593 32.3774C57.468 32.7989 56.2858 32.9959 55.0465 32.9959C53.8071 32.9959 51.8389 32.6867 50.375 32.0386C48.911 31.4202 47.6463 30.5476 46.5467 29.4506C45.4493 28.3536 44.5764 27.0596 43.9303 25.5962C43.282 24.1327 42.9727 22.5571 42.9727 20.9264H43.0002V20.9306ZM48.4873 20.9306C48.4873 21.8307 48.6568 22.6757 48.9937 23.4635C49.3305 24.2789 49.8093 24.9545 50.4004 25.5729C50.9915 26.1637 51.6949 26.6424 52.483 26.9791C53.2711 27.3158 54.1143 27.4853 55.0444 27.4853C55.9744 27.4853 56.8176 27.3158 57.6057 26.9791C58.3938 26.6424 59.0972 26.1637 59.6883 25.5729C60.2794 24.982 60.7285 24.2789 61.0675 23.4635C61.4043 22.6757 61.5738 21.8031 61.5738 20.9306C61.5738 20.058 61.4043 19.158 61.0675 18.3701C60.7306 17.5823 60.2794 16.8792 59.6883 16.2883C59.0972 15.6974 58.3938 15.2188 57.6057 14.8821C56.7901 14.5453 55.9448 14.3759 55.0444 14.3759C54.144 14.3759 53.2986 14.5453 52.5126 14.8821C51.697 15.2188 51.0212 15.6974 50.4025 16.2883C49.8114 16.8792 49.3326 17.5823 48.9958 18.3701C48.6589 19.1855 48.4895 20.0305 48.4895 20.9306H48.4873Z" fill="#0A5D31"/>
<path d="M23.19 16.1761H23.2176C22.5989 14.7126 21.7261 13.4186 20.6287 12.3491C19.5312 11.2521 18.2643 10.4071 16.8004 9.76115C15.3364 9.14274 13.7602 8.80389 12.1014 8.80389H5.51679V2.86974C5.51679 2.47582 5.45959 2.0819 5.31977 1.74517C5.17994 1.40843 4.98291 1.09923 4.75622 0.845093C4.50199 0.590953 4.22234 0.396113 3.88337 0.226687C3.54651 0.0869104 3.18 0.00219727 2.78594 0.00219727C2.39188 0.00219727 2.02537 0.0869104 1.68851 0.226687C1.35166 0.366464 1.06989 0.563422 0.815655 0.845093C0.561425 1.09923 0.364397 1.40843 0.22457 1.74517C0.0847434 2.0819 0 2.47582 0 2.86974V20.8734C0 22.5338 0.309313 24.0798 0.9576 25.5432C1.60589 27.0066 2.44908 28.3006 3.54651 29.3977C4.64394 30.4947 5.93839 31.3672 7.40233 31.9856C8.86628 32.604 10.4425 32.9429 12.0738 32.9429C13.7051 32.9429 15.311 32.6337 16.7728 31.9856C18.2368 31.3672 19.5016 30.4947 20.6011 29.3977C21.6985 28.3006 22.5439 27.0066 23.19 25.5432C23.8383 24.0798 24.1476 22.5041 24.1476 20.8734C24.1476 19.2427 23.8383 17.6374 23.19 16.1761ZM10.8641 14.8545C12.131 15.1637 13.4806 15.5852 14.6076 16.121C14.3259 17.415 14.186 18.7662 14.2411 20.1152C14.2687 20.9878 14.381 21.8878 14.578 22.7604L11.5675 19.7509C11.2857 18.7937 10.9213 17.6119 10.8641 16.0935C10.8366 15.6995 10.8641 15.2781 10.8641 14.8566V14.8545ZM10.076 14.6576V16.121L10.0484 16.0935C10.076 17.0507 10.2455 17.8661 10.415 18.5967L6.0528 14.2361C6.78371 14.1239 8.33239 14.2933 10.0781 14.6576H10.076ZM5.51679 14.827L9.87896 19.1876C9.14805 18.9906 8.33028 18.8509 7.37479 18.8212L7.40233 18.8487C6.92353 18.8212 6.41719 18.8487 5.93839 18.8487C5.57188 17.1333 5.40451 15.5576 5.51679 14.8249V14.827ZM7.37479 23.3788C6.84091 22.2542 6.41719 20.9306 6.10788 19.6366H7.34513C8.86416 19.6938 10.0463 20.058 11.0039 20.3397L14.0144 23.3491C13.1416 23.1522 12.2687 23.0399 11.3683 23.0124C10.0463 22.9552 8.69467 23.0971 7.37267 23.3788H7.37479ZM8.80908 25.63C8.41502 25.2361 8.07816 24.7024 7.73919 24.1116C8.92136 23.8574 10.1311 23.7452 11.3408 23.8023V23.8299C12.6352 23.8574 13.9022 24.084 15.1119 24.4483L16.8004 26.1362C15.6754 26.9791 12.1014 28.9211 8.80908 25.63ZM17.3364 25.5453L15.6479 23.8574C15.2814 22.6206 15.0843 21.3541 15.0292 20.0877C14.972 18.8784 15.0864 17.6691 15.3386 16.4874C15.9572 16.7966 16.4635 17.163 16.8576 17.5569H16.83C20.1223 20.8204 18.1817 24.4208 17.3364 25.5474V25.5453Z" fill="#0A5D31"/>
<path d="M94.022 30.2426C94.022 30.6365 93.9373 31.0029 93.7974 31.3121C93.6555 31.6213 93.4606 31.9305 93.2339 32.1846C93.0093 32.4388 92.7276 32.6061 92.3907 32.748C92.0538 32.8877 91.7149 32.9449 91.3505 32.9449C90.9861 32.9449 90.6196 32.8877 90.2806 32.748C89.9437 32.6082 89.6323 32.4112 89.3802 32.1846C89.1281 31.9305 88.931 31.6509 88.7616 31.3121C88.6196 30.9753 88.5349 30.6365 88.5349 30.2426V20.509C88.5073 19.6937 88.3378 18.9058 88.0285 18.1752C87.7192 17.4445 87.2976 16.824 86.7913 16.2903C86.2574 15.7566 85.6642 15.3331 84.9629 15.0239C84.2596 14.7147 83.499 14.5452 82.6558 14.5452C81.8126 14.5452 80.9948 14.7147 80.2639 15.0239C79.5309 15.3331 78.9123 15.7842 78.4059 16.3179C77.8996 16.8812 77.4759 17.5271 77.1941 18.2874C76.9144 19.0477 76.7449 19.8356 76.7449 20.706V30.2426C76.7449 30.6365 76.6877 31.0029 76.5479 31.3121C76.406 31.6488 76.2111 31.9305 75.9844 32.1846C75.7323 32.4388 75.4505 32.6061 75.1412 32.748C74.8319 32.8877 74.4653 32.9449 74.0713 32.9449C73.6772 32.9449 73.3383 32.8877 73.0014 32.748C72.6645 32.6082 72.3552 32.4112 72.101 32.1846C71.8468 31.9305 71.6222 31.6509 71.4824 31.3121C71.3404 30.9753 71.2578 30.6365 71.2578 30.2426V20.706C71.2578 19.0753 71.5396 17.5843 72.1307 16.1484C72.7218 14.7422 73.5099 13.5033 74.5226 12.4634C75.5374 11.4236 76.7471 10.5785 78.1538 9.96014C79.5627 9.34173 81.052 9.06006 82.6558 9.06006C84.2596 9.06006 85.7807 9.36926 87.1578 9.96014C88.537 10.5785 89.7467 11.3939 90.7615 12.4634C91.7742 13.5329 92.5623 14.7422 93.1534 16.1484C93.7445 17.5547 94.0262 19.0732 94.0262 20.706V30.2426H94.022Z" fill="#0A5D31"/>
<path d="M96.3596 20.8732C96.3596 19.2128 96.6689 17.6372 97.3172 16.1759C97.9655 14.7125 98.8362 13.4481 99.9336 12.349C101.031 11.2519 102.298 10.3794 103.762 9.76097C105.226 9.14256 106.772 8.80371 108.433 8.80371C110.094 8.80371 111.671 9.11291 113.132 9.76097C114.596 10.3794 115.891 11.2519 116.961 12.349C118.058 13.446 118.903 14.7125 119.522 16.1759C120.141 17.6393 120.452 19.215 120.452 20.8732V29.8464C120.452 30.2404 120.367 30.6068 120.228 30.9435C120.086 31.2802 119.891 31.5619 119.636 31.816C119.384 32.0702 119.075 32.2671 118.736 32.4344C118.399 32.5742 118.033 32.6589 117.639 32.6589C116.99 32.6589 116.429 32.462 115.978 32.0681C115.529 31.6741 115.219 31.1955 115.077 30.6046C114.12 31.3353 113.079 31.8986 111.952 32.3201C110.825 32.7415 109.645 32.9385 108.406 32.9385C107.166 32.9385 105.198 32.6293 103.734 31.9812C102.27 31.3628 101.006 30.4903 99.9061 29.3932C98.8087 28.2962 97.9358 27.0022 97.2896 25.5388C96.6413 24.0754 96.332 22.4997 96.332 20.869H96.3596V20.8732ZM101.847 20.8732C101.847 21.7733 102.016 22.6183 102.353 23.4061C102.69 24.2215 103.169 24.8971 103.76 25.5155C104.351 26.1064 105.054 26.585 105.842 26.9217C106.628 27.2585 107.474 27.4279 108.404 27.4279C109.334 27.4279 110.177 27.2585 110.965 26.9217C111.753 26.585 112.457 26.1064 113.048 25.5155C113.639 24.9246 114.088 24.2215 114.427 23.4061C114.764 22.6183 114.933 21.7458 114.933 20.8732C114.933 20.0007 114.764 19.1006 114.427 18.3128C114.09 17.5249 113.611 16.8218 113.048 16.2309C112.457 15.6401 111.753 15.1614 110.965 14.8247C110.149 14.488 109.304 14.3185 108.404 14.3185C107.503 14.3185 106.66 14.488 105.872 14.8247C105.056 15.1614 104.381 15.6401 103.76 16.2309C103.169 16.8218 102.69 17.5249 102.353 18.3128C102.016 19.1281 101.847 19.9731 101.847 20.8732Z" fill="#0A5D31"/>
</g>
<defs>
<clipPath id="clip0_991_581">
<rect width="120.45" height="33" fill="white"/>
</clipPath>
</defs>
</svg>
