<svg width="46" height="46" viewBox="0 0 46 46" fill="none" xmlns="http://www.w3.org/2000/svg">
<path d="M23 0C10.3179 0 0 10.3179 0 23C0 35.6821 10.3179 46 23 46C35.6821 46 46 35.6821 46 23C46 10.3179 35.6821 0 23 0ZM28.7199 23.8097H24.978C24.978 29.7881 24.978 37.1487 24.978 37.1487H19.4332C19.4332 37.1487 19.4332 29.8594 19.4332 23.8097H16.7974V19.0959H19.4332V16.047C19.4332 13.8634 20.4708 10.4513 25.0289 10.4513L29.1359 10.467V15.0427C29.1359 15.0427 26.6391 15.0427 26.1536 15.0427C25.6682 15.0427 24.9789 15.2855 24.9789 16.3268V19.0969H29.2035L28.7199 23.8097Z" fill="#00AA4B"/>
</svg>
