<svg width="46" height="46" viewBox="0 0 46 46" fill="none" xmlns="http://www.w3.org/2000/svg">
<path fill-rule="evenodd" clip-rule="evenodd" d="M23 0C35.694 0 46 10.306 46 23C46 35.694 35.694 46 23 46C10.306 46 0 35.694 0 23C0 10.306 10.306 0 23 0ZM23 8.625C19.096 8.625 18.6065 8.64153 17.0732 8.71152C15.5431 8.78133 14.4982 9.02436 13.5837 9.37969C12.6385 9.74706 11.8368 10.2386 11.0377 11.0378C10.2385 11.8369 9.74697 12.6386 9.3796 13.5838C9.02427 14.4982 8.78133 15.5431 8.71143 17.0732C8.64153 18.6065 8.625 19.096 8.625 23C8.625 26.904 8.64153 27.3935 8.71143 28.9268C8.78133 30.4569 9.02427 31.5018 9.3796 32.4162C9.74697 33.3614 10.2385 34.1631 11.0377 34.9623C11.8368 35.7615 12.6385 36.253 13.5837 36.6204C14.4982 36.9756 15.5431 37.2187 17.0732 37.2885C18.6065 37.3585 19.096 37.375 23 37.375C26.904 37.375 27.3935 37.3585 28.9268 37.2885C30.4569 37.2187 31.5018 36.9756 32.4162 36.6204C33.3614 36.253 34.1631 35.7615 34.9623 34.9623C35.7615 34.1631 36.253 33.3614 36.6204 32.4162C36.9756 31.5018 37.2187 30.4569 37.2885 28.9268C37.3585 27.3935 37.375 26.904 37.375 23C37.375 19.096 37.3585 18.6065 37.2885 17.0732C37.2187 15.5431 36.9756 14.4982 36.6204 13.5838C36.253 12.6386 35.7615 11.8369 34.9623 11.0378C34.1631 10.2386 33.3614 9.74706 32.4162 9.37969C31.5018 9.02436 30.4569 8.78133 28.9268 8.71152C27.3935 8.64153 26.904 8.625 23 8.625ZM23 11.2151C26.8383 11.2151 27.2929 11.2297 28.8088 11.2989C30.2103 11.3629 30.9714 11.597 31.4779 11.7939C32.149 12.0546 32.6278 12.3662 33.1308 12.8692C33.6339 13.3722 33.9454 13.8511 34.2061 14.5221C34.403 15.0286 34.6372 15.7897 34.7011 17.1912C34.7703 18.7071 34.7849 19.1617 34.7849 23C34.7849 26.8383 34.7703 27.2929 34.7011 28.8088C34.6372 30.2103 34.403 30.9714 34.2061 31.4779C33.9454 32.149 33.6339 32.6278 33.1308 33.1308C32.6278 33.6339 32.149 33.9454 31.4779 34.2061C30.9714 34.403 30.2103 34.6372 28.8088 34.7011C27.2932 34.7703 26.8386 34.7849 23 34.7849C19.1614 34.7849 18.7069 34.7703 17.1912 34.7011C15.7897 34.6372 15.0286 34.403 14.5221 34.2061C13.851 33.9454 13.3722 33.6339 12.8691 33.1308C12.3661 32.6278 12.0546 32.149 11.7939 31.4779C11.597 30.9714 11.3628 30.2103 11.2988 28.8088C11.2297 27.2929 11.2151 26.8383 11.2151 23C11.2151 19.1617 11.2297 18.7071 11.2988 17.1912C11.3628 15.7897 11.597 15.0286 11.7939 14.5221C12.0546 13.8511 12.3661 13.3722 12.8691 12.8692C13.3722 12.3662 13.851 12.0546 14.5221 11.7939C15.0286 11.597 15.7897 11.3629 17.1912 11.2989C18.7071 11.2297 19.1617 11.2151 23 11.2151ZM23 15.6183C18.9232 15.6183 15.6183 18.9232 15.6183 23C15.6183 27.0768 18.9232 30.3817 23 30.3817C27.0768 30.3817 30.3817 27.0768 30.3817 23C30.3817 18.9232 27.0768 15.6183 23 15.6183ZM23 27.7916C20.3537 27.7916 18.2084 25.6463 18.2084 23C18.2084 20.3537 20.3537 18.2084 23 18.2084C25.6463 18.2084 27.7916 20.3537 27.7916 23C27.7916 25.6463 25.6463 27.7916 23 27.7916ZM32.3985 15.3266C32.3985 16.2793 31.6261 17.0515 30.6734 17.0515C29.7208 17.0515 28.9485 16.2793 28.9485 15.3266C28.9485 14.3739 29.7208 13.6016 30.6734 13.6016C31.6261 13.6016 32.3985 14.3739 32.3985 15.3266Z" fill="#00AA4B"/>
</svg>
