<svg width="46" height="46" viewBox="0 0 46 46" fill="none" xmlns="http://www.w3.org/2000/svg">
<path d="M23 0C10.2974 0 0 10.2974 0 23C0 35.7026 10.2974 46 23 46C35.7026 46 46 35.7026 46 23C46 10.2974 35.7026 0 23 0ZM34.6455 20.8781C32.2032 20.8781 29.8269 20.0855 27.9971 18.7443L27.9826 27.8634C27.981 29.5532 27.4642 31.2022 26.5011 32.5906C25.538 33.979 24.1744 35.0407 22.5922 35.6339C21.01 36.2271 19.2846 36.3237 17.646 35.9108C16.0075 35.4979 14.5339 34.5951 13.4218 33.3229C12.3097 32.0508 11.6121 30.4697 11.4219 28.7907C11.2318 27.1117 11.5582 25.4146 12.3577 23.9259C13.1571 22.4373 14.3915 21.2278 15.8962 20.459C17.4009 19.6901 19.1043 19.3985 20.7791 19.6229V24.1011C19.989 23.8677 19.1456 23.889 18.3683 24.1619C17.5911 24.4348 16.9195 24.9455 16.4488 25.6216C15.9781 26.2976 15.7322 27.1047 15.746 27.9284C15.7598 28.7521 16.0326 29.5505 16.5257 30.2104C17.0187 30.8703 17.707 31.3582 18.493 31.605C19.279 31.8517 20.1226 31.8447 20.9044 31.585C21.6862 31.3253 22.3663 30.826 22.8484 30.158C23.3304 29.49 23.5899 28.6872 23.5901 27.8634V9.82289H28.1968C28.1968 10.6697 28.3636 11.5082 28.6877 12.2906C29.0118 13.0729 29.4867 13.7838 30.0855 14.3826C30.6843 14.9814 31.3952 15.4564 32.1776 15.7804C32.9599 16.1045 33.7985 16.2713 34.6453 16.2712L34.6455 20.8781Z" fill="#00AA4B"/>
</svg>
