<svg width="42" height="44" viewBox="0 0 42 44" fill="none" xmlns="http://www.w3.org/2000/svg">
<g clip-path="url(#clip0_818_408)">
<path d="M21.0051 0.775024C9.82549 0.775024 0.763672 9.97183 0.763672 21.318C0.763672 25.9061 2.27058 30.1325 4.77531 33.5529L1.04876 43.225L12.0451 39.7116C14.7535 41.0756 17.7877 41.861 21.0051 41.861C32.1848 41.861 41.2466 32.6642 41.2466 21.318C41.2466 9.97183 32.1848 0.775024 21.0051 0.775024Z" stroke="#00AA4B" stroke-width="1.5" stroke-linejoin="round"/>
<path d="M20.7616 22.8577C20.7616 22.8577 19.5194 21.7934 18.2365 19.5717C17.758 18.7347 17.7885 17.6806 18.3485 16.8953L18.8678 16.1616C19.5805 15.1489 19.4685 13.7643 18.6031 12.8859L16.414 10.6642C15.6402 9.87886 14.398 9.87886 13.6343 10.6642C12.0358 12.2866 11.4147 14.6529 12.046 16.8643C12.7689 19.4063 14.3776 22.7751 17.8903 25.7924" stroke="#00AA4B" stroke-width="1.5" stroke-miterlimit="10"/>
<path d="M20.5362 22.6304C20.5362 22.6304 21.5849 23.8911 23.774 25.1931C24.5987 25.6787 25.6373 25.6478 26.4111 25.0794L27.134 24.5524C28.1318 23.8291 29.4962 23.9427 30.3616 24.8211L32.5507 27.0428C33.3245 27.8281 33.3245 29.0888 32.5507 29.8638C30.9522 31.4862 28.6205 32.1165 26.4416 31.4758C23.9369 30.7422 20.6176 29.1095 17.6445 25.5444" stroke="#00AA4B" stroke-width="1.5" stroke-miterlimit="10"/>
</g>
<defs>
<clipPath id="clip0_818_408">
<rect width="42" height="44" fill="white"/>
</clipPath>
</defs>
</svg>
